<svg version="1.1" id="Layer_1" xmlns="http://www.w3.org/2000/svg" xmlns:xlink="http://www.w3.org/1999/xlink" x="0px" y="0px"
	 width="100%" viewBox="0 0 989 958" enable-background="new 0 0 989 958" xml:space="preserve">
<path fill="#61f3ac" opacity="1.000000" stroke="none" 
	d="
M306.000000,0.999996 
	C310.356903,1.000000 314.713806,1.000000 319.394714,1.363719 
	C321.874115,2.719672 324.223877,3.428618 326.152435,4.751582 
	C336.256470,11.682829 346.542511,18.400200 356.185028,25.934517 
	C362.434814,30.817863 368.899292,34.761742 376.706268,35.758034 
	C381.569427,36.378647 386.992920,37.335201 390.942596,33.033585 
	C400.058685,23.105299 398.475464,21.870697 408.952301,32.459507 
	C409.069336,32.577801 409.207581,32.678722 409.308167,32.809113 
	C415.673981,41.061447 424.102112,38.032024 432.340240,36.892986 
	C432.730286,36.629528 432.889069,36.419937 433.327026,36.088478 
	C434.405151,35.325394 435.146454,34.640491 436.205872,34.090622 
	C437.627136,34.483555 438.730255,34.741459 439.909943,35.379875 
	C439.694214,36.983715 439.401886,38.207050 439.178680,39.141075 
	C442.348022,43.521587 445.436981,41.638741 449.113739,38.003132 
	C449.113739,41.441059 449.113739,43.698975 448.876099,46.130253 
	C449.130585,46.855007 449.622650,47.406391 450.509277,47.977451 
	C455.708679,50.989357 460.106476,50.653473 464.113739,46.479538 
	C464.484070,46.093838 465.285034,46.121544 466.192871,45.971935 
	C466.704254,45.976635 466.908783,45.966686 467.547791,45.976707 
	C470.391724,45.671135 472.801239,45.071831 475.210571,45.072613 
	C481.810699,45.074749 488.700714,44.172359 494.947205,45.737869 
	C506.088287,48.530087 514.963928,55.725845 523.228333,63.607426 
	C525.868835,66.125542 528.958191,68.856201 532.318481,69.808052 
	C542.367065,72.654411 559.206360,65.291840 564.902161,56.448074 
	C568.141785,51.417961 571.537598,46.478470 575.068542,41.648399 
	C579.856140,35.099377 588.578674,33.713852 594.511414,39.248543 
	C599.776184,44.160133 604.061707,50.113609 608.887390,55.510651 
	C609.832092,56.567192 611.236389,57.818363 612.488892,57.887413 
	C617.444946,58.160606 622.428528,58.118095 627.394897,57.965443 
	C632.109497,57.820534 636.063110,53.694344 635.955811,49.124649 
	C635.918701,47.544594 634.815369,45.835579 635.170898,44.431549 
	C635.971619,41.269127 636.943176,37.937885 638.821655,35.397202 
	C639.345459,34.688622 643.768555,35.886780 645.538635,37.295906 
	C648.471375,39.630646 650.195312,43.755138 653.332458,45.507301 
	C660.669189,49.605072 668.684021,51.440861 677.276550,49.456326 
	C679.490662,48.944950 682.579407,48.854748 684.242126,50.025558 
	C687.653503,52.427715 690.216064,55.993633 693.405334,58.760891 
	C702.344177,66.516869 711.256104,70.329330 722.340210,57.892864 
	C722.730286,57.629505 722.889099,57.419941 723.265076,57.061420 
	C723.748840,56.634243 723.957703,56.312309 724.340210,55.892864 
	C724.730286,55.629505 724.889099,55.419941 725.300171,55.089661 
	C726.035339,54.994209 726.460693,54.975758 727.192871,54.971943 
	C727.704224,54.976646 727.908813,54.966713 728.464844,55.114391 
	C731.821533,56.105156 734.826782,56.938309 738.165894,57.864021 
	C737.889771,59.596558 737.571106,61.595943 737.307495,63.250031 
	C740.642212,66.768234 744.318726,68.543915 749.205933,66.090591 
	C750.627136,66.483871 751.730286,66.742126 752.910278,67.364883 
	C753.029419,68.471870 753.071594,69.214363 752.847412,70.157173 
	C753.092346,71.224243 753.603577,72.091011 754.424072,73.075203 
	C755.836487,74.756981 756.939514,76.321335 758.037781,78.253372 
	C758.726868,79.399971 759.420837,80.178879 760.387451,81.043304 
	C761.120911,81.714302 761.581543,82.299782 762.064453,83.200966 
	C762.668884,84.011208 763.251160,84.505745 763.915894,85.403610 
	C766.231384,86.475525 768.448120,87.206047 770.702332,87.792763 
	C772.458130,88.249756 774.260559,88.527740 776.064453,89.200974 
	C776.668884,90.011208 777.251160,90.505745 777.910217,91.430069 
	C778.661865,95.843475 779.336731,99.827095 780.187805,104.850853 
	C777.740662,103.584412 776.248840,102.812325 774.759644,102.042114 
	C768.146301,107.268295 769.483032,112.211472 773.065979,119.239441 
	C774.098022,120.381668 775.106323,121.169716 776.430176,122.081100 
	C778.847717,123.990364 781.105530,125.624107 783.024902,127.588539 
	C791.327393,136.085785 800.995789,140.740555 813.183350,139.049866 
	C815.626038,138.710999 818.265564,138.548737 820.629517,139.098938 
	C831.051697,141.524719 840.663208,138.795547 850.340210,134.892853 
	C850.730408,134.629532 850.889160,134.419952 851.342773,134.004471 
	C853.056335,133.434143 854.643860,133.344986 855.741150,132.565567 
	C862.347717,127.873154 868.713440,122.830513 875.442932,118.328369 
	C877.811584,116.743706 880.834961,115.088760 883.271118,119.389412 
	C884.828125,122.138168 893.782166,122.729652 897.069275,121.522911 
	C905.545288,118.411301 916.025146,119.322296 920.076538,125.222153 
	C920.778809,126.025276 921.446716,126.491508 922.442566,127.092674 
	C925.311890,129.533020 926.745300,131.579071 925.218140,135.662216 
	C921.355042,145.990433 917.861084,156.513901 915.120178,167.190430 
	C911.550049,181.096786 908.603333,195.120789 901.064087,207.641678 
	C895.891602,216.232056 891.455811,225.289948 883.063599,231.492966 
	C878.367371,234.964096 875.961975,239.957947 876.084839,245.784439 
	C876.161621,249.428284 874.745056,251.491333 871.631470,253.125504 
	C864.886780,256.665405 861.286499,261.986816 862.837891,270.170471 
	C862.763550,274.531952 863.625732,278.296539 868.484253,280.167053 
	C870.035095,287.612335 868.171204,292.965790 861.096985,296.732910 
	C857.399719,298.701721 854.596985,302.807556 855.836426,308.173584 
	C856.738525,310.907532 857.917847,313.424774 859.057251,315.963623 
	C859.017395,315.985260 859.060547,315.905457 859.050842,316.271484 
	C859.732361,317.410950 860.423584,318.184357 861.446899,319.096863 
	C865.852844,322.282745 864.878479,326.743683 865.037476,331.251892 
	C865.720581,332.392639 866.408813,333.167236 867.057068,333.963562 
	C867.017151,333.985321 867.060547,333.905457 867.050842,334.271484 
	C867.732361,335.410980 868.423523,336.184387 869.447754,337.097046 
	C874.358459,339.549591 878.936279,341.862915 883.454224,344.546661 
	C884.295227,345.591919 885.196045,346.266754 886.057068,346.961975 
	C886.017334,346.982330 886.058228,346.902954 886.088989,347.238220 
	C886.784790,348.034912 887.449768,348.496368 888.465454,349.116547 
	C892.526367,352.545227 896.324341,351.248322 900.089661,349.438904 
	C906.171326,346.516418 911.090332,348.431122 913.876099,355.130249 
	C914.130554,355.854980 914.622681,356.406372 915.445557,357.111816 
	C915.865112,358.472443 915.953857,359.679077 916.037537,361.281738 
	C917.393188,364.437775 918.753967,367.197815 920.429321,370.080017 
	C922.815125,371.951538 924.998047,373.586639 926.932495,375.476105 
	C930.078308,378.548889 933.061707,381.787994 935.876404,385.128784 
	C936.125000,385.847656 936.610901,386.394684 937.057007,386.963531 
	C937.017090,386.985352 937.060547,386.905457 937.050842,387.271484 
	C937.732361,388.410950 938.423523,389.184357 939.449890,390.100159 
	C941.843994,391.161682 943.885803,392.121918 945.967224,392.987061 
	C947.634155,393.679932 949.348999,394.257172 951.035217,395.234894 
	C951.629639,396.389465 952.231506,397.194885 952.911743,398.349854 
	C953.697937,400.118622 954.405823,401.537750 954.876404,403.128754 
	C955.125061,403.847626 955.610962,404.394653 956.057007,404.963501 
	C956.017090,404.985352 956.060547,404.905457 956.050842,405.271515 
	C956.732300,406.410980 957.423523,407.184387 958.428223,408.079010 
	C962.939453,412.077118 967.027405,416.084259 971.389709,419.766296 
	C973.112000,421.220062 975.496155,421.863129 977.489075,423.028900 
	C980.712463,424.914307 983.861694,426.926605 987.036072,429.270325 
	C987.367371,431.141815 987.704834,432.628265 987.914673,434.435364 
	C982.825745,439.840698 978.110840,445.199036 972.841675,449.941620 
	C966.070618,456.036102 957.700195,456.898102 948.954346,455.551758 
	C948.258606,455.218781 947.608826,455.167419 946.510010,455.062500 
	C939.082092,454.823090 932.026367,454.860138 925.730347,451.223053 
	C918.252502,446.903229 910.807495,442.517792 903.479492,437.950317 
	C898.461975,434.823059 893.471619,435.130524 889.316650,439.175995 
	C885.622253,442.773041 885.416138,447.207458 886.037537,452.282166 
	C888.354675,458.771027 890.590881,464.899078 893.089355,470.918304 
	C893.475464,471.848572 895.064270,472.279663 896.056885,472.963470 
	C896.016968,472.985321 896.060547,472.905457 896.050842,473.271484 
	C896.732361,474.410950 897.423584,475.184357 898.432434,476.083008 
	C903.180969,482.100708 907.611755,487.993195 912.037781,494.253418 
	C912.726868,495.399994 913.420776,496.178894 914.431274,497.081909 
	C916.845947,500.432404 918.944092,503.658813 921.035706,507.261536 
	C922.057739,508.744476 923.086243,509.851105 924.430664,511.081299 
	C928.823242,516.389404 932.892273,521.580017 936.979309,526.756409 
	C939.653625,530.143494 942.353943,533.510010 945.037048,537.274536 
	C946.059265,539.428223 947.087036,541.193054 948.467712,543.141907 
	C949.806763,547.809143 950.574524,552.238770 948.143799,556.605652 
	C947.666748,557.462769 948.100220,558.826721 947.835571,560.176758 
	C948.737366,562.911682 949.917236,565.426819 951.057373,567.963623 
	C951.017700,567.985352 951.060547,567.905579 951.050598,568.270081 
	C951.726074,569.403687 952.411499,570.172729 953.057312,570.962036 
	C953.017700,570.982300 953.058228,570.903076 953.088989,571.238281 
	C953.784729,572.034973 954.449707,572.496399 955.428711,573.079468 
	C957.218689,574.700745 958.530762,576.426514 960.210876,577.644531 
	C962.451294,579.268799 964.795349,580.613403 963.846069,584.145264 
	C963.385498,585.166870 963.192505,586.000122 962.565186,586.910278 
	C960.209412,586.703430 958.291443,586.393860 956.366028,586.140564 
	C949.075134,585.181458 941.788513,583.697327 936.275208,590.963684 
	C935.049255,592.579529 932.130188,592.910706 929.893066,593.659790 
	C929.629578,593.269714 929.419983,593.110901 929.028503,592.688171 
	C927.579346,590.282349 926.268311,588.198181 924.971924,585.807129 
	C924.976624,585.295715 924.966736,585.091125 924.847107,584.543030 
	C921.396118,577.831299 920.781006,577.649536 913.957092,581.004639 
	C911.935059,581.998901 910.002136,583.302795 907.870667,583.923218 
	C900.112610,586.181885 898.211670,588.411560 898.008484,596.274231 
	C897.952637,598.436157 898.509949,600.772461 897.855957,602.715881 
	C897.200378,604.664124 895.580078,607.427002 894.030640,607.680298 
	C891.409363,608.108887 888.479919,606.963318 885.736511,606.259583 
	C881.913879,605.279175 878.072937,603.016357 874.367126,603.257690 
	C869.048279,603.604065 863.857178,605.766907 858.581665,607.029541 
	C857.341431,607.326416 855.521362,607.687927 854.751770,607.059631 
	C849.814880,603.029602 845.096436,598.732056 839.792847,594.071411 
	C837.185425,597.420044 835.009399,600.214661 832.659790,603.106934 
	C832.269714,603.370422 832.110901,603.580017 831.651672,604.000244 
	C821.571289,607.078857 817.747498,612.349915 818.847412,621.157227 
	C819.092346,622.224304 819.603577,623.091064 820.437866,624.088379 
	C826.045105,627.155029 827.209473,631.498901 824.840210,637.167358 
	C825.416138,638.904419 826.265442,640.431152 827.442932,642.093140 
	C830.352356,643.485718 832.939026,644.731689 835.512329,646.005005 
	C836.688782,646.587097 837.838684,647.222900 839.006104,648.228088 
	C839.125183,649.273560 839.115906,649.978210 839.370667,650.569092 
	C843.842590,660.939453 848.291687,671.320557 852.911926,681.624817 
	C853.505432,682.948364 855.024475,683.856995 856.478943,685.158691 
	C856.843140,687.119263 856.843140,688.878906 856.843140,690.949768 
	C855.403625,690.949768 854.060608,691.205750 852.856384,690.905334 
	C847.703064,689.619629 844.001099,691.774719 841.053772,695.700500 
	C839.536987,697.720825 838.233337,699.901245 836.659790,702.106934 
	C836.269714,702.370422 836.110901,702.580017 835.631592,702.910156 
	C831.174255,699.270142 827.081726,695.567688 823.048035,691.802307 
	C822.794617,691.565735 823.137939,690.785217 822.971008,690.346191 
	C820.656982,684.259949 818.302429,678.189209 815.923401,671.777832 
	C815.221130,670.974670 814.553162,670.508423 813.525391,669.850037 
	C812.368347,669.105469 811.434387,667.951294 810.795837,668.096497 
	C806.032837,669.179443 801.256165,670.300232 796.620239,671.824158 
	C786.469849,675.160828 777.576904,680.502991 770.659790,689.106934 
	C770.269714,689.370422 770.110901,689.580017 769.693909,689.967041 
	C761.446289,698.184998 752.719238,705.734070 750.936279,717.916809 
	C750.831848,718.630737 749.975098,719.203308 749.616272,719.916077 
	C745.683411,727.727478 739.385498,734.680603 740.975708,744.476624 
	C741.987305,750.708313 743.028259,756.956665 743.541565,763.239563 
	C743.831177,766.784485 746.815857,770.696045 742.659790,774.106934 
	C742.269714,774.370422 742.110901,774.580017 741.673950,774.982666 
	C739.690247,776.088257 738.131958,777.271851 736.379456,777.962341 
	C728.062134,781.238953 719.877747,784.836609 714.894226,792.731018 
	C711.325745,798.383789 708.406860,804.449890 705.267151,810.368103 
	C704.384705,812.031433 703.245911,813.777710 703.079895,815.565308 
	C702.232544,824.689209 701.703064,833.842041 700.989014,842.979065 
	C700.326233,851.458740 700.835388,860.296631 698.519165,868.309265 
	C695.943909,877.217773 698.441040,882.982422 705.062805,888.480713 
	C706.097595,888.824524 707.069275,888.854187 708.417236,888.937561 
	C712.543213,890.956055 716.292908,892.920898 720.035217,895.234985 
	C720.629639,896.389526 721.231506,897.194885 722.025757,898.382935 
	C721.898071,903.610474 721.944824,908.515381 721.163452,913.284546 
	C720.224060,919.018372 715.112915,923.565979 715.876099,930.130310 
	C716.130554,930.855103 716.622681,931.406433 717.471069,932.146851 
	C717.899414,933.662659 717.543945,935.221497 718.116760,936.276306 
	C720.700928,941.034973 717.905090,943.024170 714.243286,945.028748 
	C710.726257,946.954163 707.422607,949.273376 704.052673,951.461975 
	C701.430420,953.164917 698.850464,954.933044 696.251709,956.672180 
	C695.167358,953.353394 694.260620,949.963135 692.961792,946.730530 
	C690.208313,939.877686 687.536438,932.897461 681.013611,928.520996 
	C674.280396,924.003479 666.409668,923.779175 658.762207,923.071777 
	C651.545959,922.404114 644.268066,922.425049 637.032532,921.923096 
	C635.541382,921.819580 633.874023,921.039062 632.700867,920.070312 
	C622.216797,911.413208 611.752991,902.728210 601.428650,893.881775 
	C592.800781,886.488831 584.146606,879.101746 575.906311,871.287903 
	C566.185669,862.070312 557.040833,852.246765 547.358582,842.986877 
	C542.912476,838.734741 539.768982,832.817810 532.126648,832.410889 
	C524.762451,832.018799 517.267761,830.869934 510.223877,828.747681 
	C505.160156,827.222046 500.888519,826.360352 496.758301,830.025269 
	C494.710358,831.842468 492.986206,834.024536 490.561462,836.280396 
	C489.704437,836.783997 489.401550,837.048767 488.831299,837.161987 
	C488.042725,836.395996 487.521484,835.781433 486.968994,834.846069 
	C486.347382,834.016724 485.757019,833.508240 485.089722,832.642334 
	C484.327667,831.228027 483.642548,830.171204 482.968750,828.710693 
	C482.972656,827.499817 482.965240,826.692566 483.135895,825.536621 
	C489.861877,825.402039 493.297150,820.991089 497.103210,816.556335 
	C502.701141,810.033875 504.019653,801.186218 498.744934,794.383911 
	C489.091522,781.934753 478.834351,769.954773 469.131409,757.542725 
	C463.195404,749.949341 455.475189,744.878540 447.627441,739.596436 
	C443.252350,736.651672 440.462006,731.352539 436.968262,726.741638 
	C436.374939,725.245850 435.770813,724.122742 435.088226,722.784668 
	C435.009766,722.569641 434.957794,722.114746 434.935547,721.799072 
	C434.331085,720.988770 433.748871,720.494263 433.026062,719.679443 
	C426.118683,712.590454 419.716553,705.399841 412.494781,699.157471 
	C402.998230,690.948669 397.104156,680.545105 396.377441,668.592102 
	C395.690216,657.287842 394.946259,646.121338 391.885010,635.277161 
	C389.803802,627.904724 385.575714,620.846741 378.249237,618.383728 
	C366.898804,614.567810 355.195038,612.200989 346.470795,602.940247 
	C341.499207,597.662842 335.383057,593.424377 330.664948,587.956421 
	C323.033234,579.111938 316.123077,569.644348 308.918396,560.432007 
	C301.710175,551.215149 294.179169,542.227783 287.388977,532.712219 
	C276.182587,517.007812 261.854584,504.704590 246.851379,492.860291 
	C234.855164,483.389862 222.469833,474.110687 214.698654,460.310944 
	C206.052170,444.956879 193.760468,433.255127 178.888245,423.805908 
	C172.326614,419.636902 166.384796,414.098938 161.194168,408.263916 
	C154.530029,400.772461 149.256760,392.056183 142.734970,384.422241 
	C136.054306,376.602356 130.176468,368.610352 127.068573,358.577789 
	C123.494957,347.041901 122.879341,335.580139 126.047890,324.007172 
	C127.356979,319.225739 126.780830,314.948883 123.720329,311.350677 
	C119.526154,306.419586 114.410942,302.869354 107.280121,304.008514 
	C108.219673,298.298309 109.377815,292.915771 109.936539,287.471771 
	C110.753723,279.509338 108.105217,272.100098 105.271828,264.854736 
	C102.909996,258.815247 100.015625,252.986145 97.531097,246.991760 
	C95.361084,241.756180 91.544296,243.330032 87.975258,244.620056 
	C86.050148,245.315857 84.398643,246.765060 82.618202,247.865479 
	C79.390030,249.860687 75.003006,248.111710 75.157997,244.365173 
	C75.397781,238.568817 75.577072,232.372635 77.747993,227.165665 
	C79.903198,221.996384 78.591682,218.097183 75.461166,215.329987 
	C68.818764,209.458527 63.206165,203.522980 59.660313,194.896393 
	C55.027950,183.626480 45.762299,177.363281 32.749870,179.028214 
	C25.383038,179.970779 20.205923,176.613190 15.923429,170.777832 
	C15.221141,169.974701 14.553184,169.508453 13.550339,168.883820 
	C12.143929,165.737625 10.431389,162.815598 10.116797,159.750092 
	C9.016522,149.028549 8.413294,138.256348 7.566554,127.507683 
	C7.506824,126.749474 7.029579,126.014160 6.700777,125.288918 
	C5.463359,122.559540 4.207013,119.838745 2.928474,116.785828 
	C2.266128,115.971275 1.633065,115.485641 1.000001,115.000000 
	C1.000000,112.299988 1.000000,109.599968 1.361531,106.375275 
	C2.134628,104.528816 2.546193,103.207039 2.980638,101.519760 
	C5.207364,99.706467 7.333191,98.118591 9.630691,96.838943 
	C15.041063,93.825485 15.237206,85.982887 10.762562,82.006676 
	C7.481759,79.091309 5.467466,74.750687 3.182006,70.791412 
	C3.635835,68.987114 3.796361,67.436684 3.980894,65.512695 
	C8.229218,56.548679 11.051353,47.963627 7.219648,38.215477 
	C5.197096,33.069946 10.617194,22.012640 14.988408,18.930769 
	C22.487301,13.643765 30.683630,10.160116 39.713882,9.205624 
	C46.290565,8.510474 53.148167,7.535814 59.135990,11.998474 
	C67.150406,17.971535 75.265289,23.810358 83.244667,29.829275 
	C84.486191,30.765766 85.241127,32.349804 86.213692,33.639965 
	C91.379570,40.492725 95.831093,48.067665 101.870255,54.036449 
	C111.514885,63.568691 121.992798,72.309540 132.580521,80.809357 
	C136.589508,84.027756 141.658203,86.605492 146.641510,87.762321 
	C153.162155,89.276047 159.662247,88.110886 163.340240,80.893021 
	C163.730316,80.629578 163.889084,80.419975 164.338043,79.996048 
	C166.596542,74.588150 168.513184,69.353050 170.416367,64.113068 
	C173.425262,55.828785 177.801178,48.401226 184.226212,42.291073 
	C189.506195,37.269863 191.621567,30.747345 192.974091,23.903725 
	C194.584778,15.753885 198.543854,9.406716 206.834778,7.064016 
	C214.246353,4.969781 220.927155,7.753227 227.157318,11.667096 
	C237.025970,17.866724 247.929092,17.987251 258.860321,16.522352 
	C265.318939,15.656829 271.640076,13.658431 277.970703,11.973010 
	C285.045746,10.089390 292.144623,8.224938 299.060150,5.848710 
	C301.625854,4.967115 303.701080,2.658066 306.000000,0.999996 
z"/>
</svg>